<svg xmlns="http://www.w3.org/2000/svg" xmlns:xlink="http://www.w3.org/1999/xlink" contentStyleType="text/css" height="670px" preserveAspectRatio="none" style="width:1221px;height:670px;background:#FFFFFF;" version="1.1" viewBox="0 0 1221 670" width="1221px" zoomAndPan="magnify"><defs/><g><!--cluster data--><g id="cluster_data"><path d="M377.5,329 L414.1084,329 A3.75,3.75 0 0 1 416.6084,331.5 L423.6084,351.2969 L1211.5,351.2969 A2.5,2.5 0 0 1 1214,353.7969 L1214,660.5 A2.5,2.5 0 0 1 1211.5,663 L377.5,663 A2.5,2.5 0 0 1 375,660.5 L375,331.5 A2.5,2.5 0 0 1 377.5,329 " fill="none" style="stroke:#000000;stroke-width:1.5;"/><line style="stroke:#000000;stroke-width:1.5;" x1="375" x2="423.6084" y1="351.2969" y2="351.2969"/><text fill="#000000" font-family="sans-serif" font-size="14" font-weight="bold" lengthAdjust="spacing" textLength="35.6084" x="379" y="343.9951">data</text></g><!--cluster regression--><g id="cluster_regression"><path d="M8.5,6 L93.3701,6 A3.75,3.75 0 0 1 95.8701,8.5 L102.8701,28.2969 L1156,28.2969 A2.5,2.5 0 0 1 1158.5,30.7969 L1158.5,302.5 A2.5,2.5 0 0 1 1156,305 L8.5,305 A2.5,2.5 0 0 1 6,302.5 L6,8.5 A2.5,2.5 0 0 1 8.5,6 " fill="none" style="stroke:#000000;stroke-width:1.5;"/><line style="stroke:#000000;stroke-width:1.5;" x1="6" x2="102.8701" y1="28.2969" y2="28.2969"/><text fill="#000000" font-family="sans-serif" font-size="14" font-weight="bold" lengthAdjust="spacing" textLength="83.8701" x="10" y="20.9951">regression</text></g><!--class DataLoader--><g id="elem_DataLoader"><rect codeLine="6" fill="#F1F1F1" height="91.1875" id="DataLoader" rx="2.5" ry="2.5" style="stroke:#181818;stroke-width:0.5;" width="311.8037" x="391" y="364.5"/><text fill="#000000" font-family="sans-serif" font-size="14" lengthAdjust="spacing" textLength="81.6279" x="506.0879" y="382.4951">DataLoader</text><line style="stroke:#181818;stroke-width:0.5;" x1="392" x2="701.8037" y1="390.7969" y2="390.7969"/><text fill="#000000" font-family="sans-serif" font-size="14" lengthAdjust="spacing" textLength="100.2764" x="397" y="407.792">-separator: str</text><line style="stroke:#181818;stroke-width:0.5;" x1="392" x2="701.8037" y1="415.0938" y2="415.0938"/><text fill="#000000" font-family="sans-serif" font-size="14" lengthAdjust="spacing" textLength="168.0205" x="397" y="432.0889">+__init__(separator: str)</text><text fill="#000000" font-family="sans-serif" font-size="14" lengthAdjust="spacing" textLength="299.8037" x="397" y="448.3857">+load_data(folder_path: str) : list[DataSet]</text></g><!--class DataSet--><g id="elem_DataSet"><rect codeLine="12" fill="#F1F1F1" height="172.6719" id="DataSet" rx="2.5" ry="2.5" style="stroke:#181818;stroke-width:0.5;" width="430.8379" x="767" y="473.5"/><text fill="#000000" font-family="sans-serif" font-size="14" lengthAdjust="spacing" textLength="56.417" x="954.2104" y="491.4951">DataSet</text><line style="stroke:#181818;stroke-width:0.5;" x1="768" x2="1196.8379" y1="499.7969" y2="499.7969"/><text fill="#000000" font-family="sans-serif" font-size="14" lengthAdjust="spacing" textLength="140.1777" x="773" y="516.792">-data: list[list[float]]</text><text fill="#000000" font-family="sans-serif" font-size="14" lengthAdjust="spacing" textLength="102.5254" x="773" y="533.0889">+provider : str</text><line style="stroke:#181818;stroke-width:0.5;" x1="768" x2="1196.8379" y1="540.3906" y2="540.3906"/><text fill="#000000" font-family="sans-serif" font-size="14" lengthAdjust="spacing" textLength="152.4619" x="773" y="557.3857">-__init__(provider: str)</text><text fill="#000000" font-family="sans-serif" font-size="14" lengthAdjust="spacing" textLength="67.7236" x="773" y="573.6826">-__iter__()</text><text fill="#000000" font-family="sans-serif" font-size="14" lengthAdjust="spacing" textLength="97.2207" x="773" y="589.9795">-__len__() : int</text><text fill="#000000" font-family="sans-serif" font-size="14" lengthAdjust="spacing" textLength="94.6709" x="773" y="606.2764">-__str__() : str</text><text fill="#000000" font-family="sans-serif" font-size="14" lengthAdjust="spacing" textLength="155.9619" x="773" y="622.5732">+add_entry(list[float])</text><text fill="#000000" font-family="sans-serif" font-size="14" lengthAdjust="spacing" textLength="418.8379" x="773" y="638.8701">+get_features_and_labels() : tuple[list[list[float]], list[float]]</text></g><!--class <<private>>\nUtil--><g id="elem_&lt;&lt;private&gt;&gt;\nUtil"><rect codeLine="23" fill="#F1F1F1" height="74.8906" id="&lt;&lt;private&gt;&gt;\nUtil" rx="2.5" ry="2.5" style="stroke:#181818;stroke-width:0.5;" width="377.6611" x="793.5" y="363.5"/><text fill="#000000" font-family="sans-serif" font-size="14" lengthAdjust="spacing" textLength="66.6299" x="949.0156" y="381.4951">«private»</text><text fill="#000000" font-family="sans-serif" font-size="14" lengthAdjust="spacing" textLength="23.5156" x="970.5728" y="397.792">Util</text><line style="stroke:#181818;stroke-width:0.5;" x1="794.5" x2="1170.1611" y1="406.0938" y2="406.0938"/><line style="stroke:#181818;stroke-width:0.5;" x1="794.5" x2="1170.1611" y1="414.0938" y2="414.0938"/><text fill="#000000" font-family="sans-serif" font-size="14" lengthAdjust="spacing" text-decoration="underline" textLength="365.6611" x="799.5" y="431.0889">+parse_line(line: str, separator: str = " ") : list[float]</text></g><!--class Regressor--><g id="elem_Regressor"><rect codeLine="32" fill="#F1F1F1" height="88.8594" id="Regressor" rx="2.5" ry="2.5" style="stroke:#181818;stroke-width:0.5;" width="319.8564" x="387" y="157.5"/><text fill="#000000" font-family="sans-serif" font-size="12" font-style="italic" lengthAdjust="spacing" textLength="68.332" x="512.7622" y="173.6387">«interface»</text><text fill="#000000" font-family="sans-serif" font-size="14" font-style="italic" lengthAdjust="spacing" textLength="70.5059" x="511.6753" y="189.4639">Regressor</text><line style="stroke:#181818;stroke-width:0.5;" x1="388" x2="705.8564" y1="197.7656" y2="197.7656"/><line style="stroke:#181818;stroke-width:0.5;" x1="388" x2="705.8564" y1="205.7656" y2="205.7656"/><text fill="#000000" font-family="sans-serif" font-size="14" font-style="italic" lengthAdjust="spacing" textLength="307.8564" x="393" y="222.7607">+train(X: list[list[float]], y: list[float]) : None</text><text fill="#000000" font-family="sans-serif" font-size="14" font-style="italic" lengthAdjust="spacing" textLength="197.333" x="393" y="239.0576">+predict(x: list[float]) : float</text></g><!--class LinearRegressor--><g id="elem_LinearRegressor"><rect codeLine="37" fill="#F1F1F1" height="107.4844" id="LinearRegressor" rx="2.5" ry="2.5" style="stroke:#181818;stroke-width:0.5;" width="319.8564" x="822.5" y="182.5"/><text fill="#000000" font-family="sans-serif" font-size="14" lengthAdjust="spacing" textLength="114.0166" x="925.4199" y="200.4951">LinearRegressor</text><line style="stroke:#181818;stroke-width:0.5;" x1="823.5" x2="1141.3564" y1="208.7969" y2="208.7969"/><text fill="#000000" font-family="sans-serif" font-size="14" lengthAdjust="spacing" textLength="90.248" x="828.5" y="225.792">-coefficients:</text><line style="stroke:#181818;stroke-width:0.5;" x1="823.5" x2="1141.3564" y1="233.0938" y2="233.0938"/><text fill="#000000" font-family="sans-serif" font-size="14" lengthAdjust="spacing" textLength="66.1172" x="828.5" y="250.0889">-__init__()</text><text fill="#000000" font-family="sans-serif" font-size="14" lengthAdjust="spacing" textLength="307.8564" x="828.5" y="266.3857">+train(X: list[list[float]], y: list[float]) : None</text><text fill="#000000" font-family="sans-serif" font-size="14" lengthAdjust="spacing" textLength="197.333" x="828.5" y="282.6826">+predict(x: list[float]) : float</text></g><!--class AverageRegressor--><g id="elem_AverageRegressor"><rect codeLine="44" fill="#F1F1F1" height="107.4844" id="AverageRegressor" rx="2.5" ry="2.5" style="stroke:#181818;stroke-width:0.5;" width="319.8564" x="822.5" y="40.5"/><text fill="#000000" font-family="sans-serif" font-size="14" lengthAdjust="spacing" textLength="128.8164" x="918.02" y="58.4951">AverageRegressor</text><line style="stroke:#181818;stroke-width:0.5;" x1="823.5" x2="1141.3564" y1="66.7969" y2="66.7969"/><text fill="#000000" font-family="sans-serif" font-size="14" lengthAdjust="spacing" textLength="139.0293" x="828.5" y="83.792">-average_cost: float</text><line style="stroke:#181818;stroke-width:0.5;" x1="823.5" x2="1141.3564" y1="91.0938" y2="91.0938"/><text fill="#000000" font-family="sans-serif" font-size="14" lengthAdjust="spacing" textLength="66.1172" x="828.5" y="108.0889">-__init__()</text><text fill="#000000" font-family="sans-serif" font-size="14" lengthAdjust="spacing" textLength="307.8564" x="828.5" y="124.3857">+train(X: list[list[float]], y: list[float]) : None</text><text fill="#000000" font-family="sans-serif" font-size="14" lengthAdjust="spacing" textLength="197.333" x="828.5" y="140.6826">+predict(x: list[float]) : float</text></g><!--class Predictor--><g id="elem_Predictor"><rect codeLine="51" fill="#F1F1F1" height="172.6719" id="Predictor" rx="2.5" ry="2.5" style="stroke:#181818;stroke-width:0.5;" width="304.5781" x="22" y="115.5"/><text fill="#000000" font-family="sans-serif" font-size="14" lengthAdjust="spacing" textLength="63.0957" x="142.7412" y="133.4951">Predictor</text><line style="stroke:#181818;stroke-width:0.5;" x1="23" x2="325.5781" y1="141.7969" y2="141.7969"/><text fill="#000000" font-family="sans-serif" font-size="14" lengthAdjust="spacing" text-decoration="underline" textLength="211.3945" x="28" y="158.792">+AVERAGE : str = "AVERAGE"</text><text fill="#000000" font-family="sans-serif" font-size="14" lengthAdjust="spacing" text-decoration="underline" textLength="178.5" x="28" y="175.0889">+LINEAR : str = "LINEAR"</text><text fill="#000000" font-family="sans-serif" font-size="14" lengthAdjust="spacing" textLength="142.0166" x="28" y="191.3857">-regressor_type : str</text><text fill="#000000" font-family="sans-serif" font-size="14" lengthAdjust="spacing" textLength="227.3291" x="28" y="207.6826">-regressors : dict[str, Regressor]</text><text fill="#000000" font-family="sans-serif" font-size="14" lengthAdjust="spacing" textLength="229.7354" x="28" y="223.9795">+/providers : list[str] {readonly}</text><line style="stroke:#181818;stroke-width:0.5;" x1="23" x2="325.5781" y1="231.2813" y2="231.2813"/><text fill="#000000" font-family="sans-serif" font-size="14" lengthAdjust="spacing" textLength="198.6318" x="28" y="248.2764">-__init__(regressor_type: str)</text><text fill="#000000" font-family="sans-serif" font-size="14" lengthAdjust="spacing" textLength="162.415" x="28" y="264.5732">+train(folder_path: str)</text><text fill="#000000" font-family="sans-serif" font-size="14" lengthAdjust="spacing" textLength="292.5781" x="28" y="280.8701">+predict(provider: str, x: list[float]) : float</text></g><!--link DataLoader to DataSet--><g id="link_DataLoader_DataSet"><path codeLine="27" d="M679.54,455.51 C707.19,465.08 731.3804,473.4466 761.1804,483.7666 " fill="none" id="DataLoader-to-DataSet" style="stroke:#181818;stroke-width:1;stroke-dasharray:7.0,7.0;"/><polygon fill="#181818" points="766.85,485.73,759.6545,479.0051,762.1253,484.0938,757.0366,486.5646,766.85,485.73" style="stroke:#181818;stroke-width:1;"/></g><!--link DataLoader to <<private>>\nUtil--><g id="link_DataLoader_&lt;&lt;private&gt;&gt;\nUtil"><path codeLine="28" d="M703.28,406.78 C732.43,406.17 757.2013,405.6538 787.2313,405.0338 " fill="none" id="DataLoader-to-&lt;&lt;private&gt;&gt;\nUtil" style="stroke:#181818;stroke-width:1;stroke-dasharray:7.0,7.0;"/><polygon fill="#181818" points="793.23,404.91,784.1494,401.0966,788.2311,405.0132,784.3145,409.0949,793.23,404.91" style="stroke:#181818;stroke-width:1;"/></g><!--reverse link Regressor to LinearRegressor--><g id="link_Regressor_LinearRegressor"><path codeLine="62" d="M725.2147,215.8998 C762.7647,218.8498 784.86,220.58 822.41,223.52 " fill="none" id="Regressor-backto-LinearRegressor" style="stroke:#181818;stroke-width:1;stroke-dasharray:7.0,7.0;"/><polygon fill="none" points="707.27,214.49,724.7448,221.8813,725.6846,209.9182,707.27,214.49" style="stroke:#181818;stroke-width:1;"/></g><!--reverse link Regressor to AverageRegressor--><g id="link_Regressor_AverageRegressor"><path codeLine="63" d="M724.7356,157.9664 C762.2856,148.6064 784.86,142.99 822.41,133.63 " fill="none" id="Regressor-backto-AverageRegressor" style="stroke:#181818;stroke-width:1;stroke-dasharray:7.0,7.0;"/><polygon fill="none" points="707.27,162.32,726.1868,163.7883,723.2844,152.1445,707.27,162.32" style="stroke:#181818;stroke-width:1;"/></g><!--link Predictor to Regressor--><g id="link_Predictor_Regressor"><path codeLine="64" d="M327.27,202 C346.95,202 361.16,202 380.95,202 " fill="none" id="Predictor-to-Regressor" style="stroke:#181818;stroke-width:1;"/><polygon fill="#181818" points="386.95,202,377.95,198,381.95,202,377.95,206,386.95,202" style="stroke:#181818;stroke-width:1;"/><text fill="#000000" font-family="sans-serif" font-size="13" lengthAdjust="spacing" textLength="6.5" x="364.4452" y="214.4129">*</text></g><!--link Predictor to DataLoader--><g id="link_Predictor_DataLoader"><path codeLine="67" d="M327.27,287.2 C374.33,313.62 419.138,338.7829 459.468,361.4229 " fill="none" id="Predictor-to-DataLoader" style="stroke:#181818;stroke-width:1;stroke-dasharray:7.0,7.0;"/><polygon fill="#181818" points="464.7,364.36,458.8101,356.4664,460.34,361.9124,454.894,363.4424,464.7,364.36" style="stroke:#181818;stroke-width:1;"/></g><!--link Predictor to DataSet--><g id="link_Predictor_DataSet"><path codeLine="68" d="M213.4,288.7 C245.17,350.54 296.69,430.07 367,473 C486.09,545.71 635.9422,566.9563 760.8922,570.3663 " fill="none" id="Predictor-to-DataSet" style="stroke:#181818;stroke-width:1;stroke-dasharray:7.0,7.0;"/><polygon fill="#181818" points="766.89,570.53,758.0025,566.286,761.8919,570.3936,757.7842,574.283,766.89,570.53" style="stroke:#181818;stroke-width:1;"/></g><!--SRC=[pLJ1Zjem4BtdAqOvfLsWFIEAX5HKhOHM5QjMbIYoZ3C1QrqxiWTKIldtEWb97993LxqqXn1cdcVUl1dFGQO8GbgXC78lKkVSyXyW57TkGMJbxaZuA8n-bhyGtaSACm8oOEN-G91AYuAaqL6KS_72zmXnoed7S8d0FsKO-EWjAyDJj3TpyOp1OP6BZ9s28ziu7e0ngIKnbdGHRmA8yk5OaId9ZFA1MSxfKA5W2aewsXHPdv6svQbhTCV7UpfaYbYtW-KhynbekmrIvjQSP553b-wufLiZxjYM2F8SMT8rAjI5pGUKcZeUV_xcwIh3qvIX9djE0fAXBdiabY6deqN7k4wPuZjKhWn5nrpXfbVY27e5TzIAPxFSoXCddC-_woyaLHmezm0NHvoak8BlbKEcfCQaU9NSHtTTXWyGGzpqg4eQvWncPJAPrwqQSWtmYgx175hSUn6S7ywQhrSPRSO5mhho6GkpMMETpxjryPqdp0LTmVz8dNmRc8yHd3kb59Kz6Ot3SNABgHIK_EoTAR_wsg-yZjosRCE95GQpJ0hfvy5DOMWUmy7ufn9UpNjnGkkRC4oSLqucZACmmd_3_dDre4CxcFF5r-LwyMa9pK3V3F4GUFNuj5oiMsprFmuAjhL8ZCuvzhPButRULT3QbDUgaJPSKU_g3UJg2-QnMxXOvAdHwdmTqhcRlxTfA-bxMtP0tyxw6y5Vo1rSmz-JoVsq3q7k1wl4jFqQZ_rU07WB_jrYVBOMKc-LQfCCEFow-GC0]--></g></svg>