<svg xmlns="http://www.w3.org/2000/svg" xmlns:xlink="http://www.w3.org/1999/xlink" contentStyleType="text/css" height="655px" preserveAspectRatio="none" style="width:1221px;height:655px;background:#FFFFFF;" version="1.1" viewBox="0 0 1221 655" width="1221px" zoomAndPan="magnify"><defs/><g><!--cluster data--><g id="cluster_data"><path d="M377.5,314 L414.1084,314 A3.75,3.75 0 0 1 416.6084,316.5 L423.6084,336.2969 L1211.5,336.2969 A2.5,2.5 0 0 1 1214,338.7969 L1214,645.5 A2.5,2.5 0 0 1 1211.5,648 L377.5,648 A2.5,2.5 0 0 1 375,645.5 L375,316.5 A2.5,2.5 0 0 1 377.5,314 " fill="none" style="stroke:#000000;stroke-width:1.5;"/><line style="stroke:#000000;stroke-width:1.5;" x1="375" x2="423.6084" y1="336.2969" y2="336.2969"/><text fill="#000000" font-family="sans-serif" font-size="14" font-weight="bold" lengthAdjust="spacing" textLength="35.6084" x="379" y="328.9951">data</text></g><!--cluster regression--><g id="cluster_regression"><path d="M8.5,6 L93.3701,6 A3.75,3.75 0 0 1 95.8701,8.5 L102.8701,28.2969 L1156,28.2969 A2.5,2.5 0 0 1 1158.5,30.7969 L1158.5,287.5 A2.5,2.5 0 0 1 1156,290 L8.5,290 A2.5,2.5 0 0 1 6,287.5 L6,8.5 A2.5,2.5 0 0 1 8.5,6 " fill="none" style="stroke:#000000;stroke-width:1.5;"/><line style="stroke:#000000;stroke-width:1.5;" x1="6" x2="102.8701" y1="28.2969" y2="28.2969"/><text fill="#000000" font-family="sans-serif" font-size="14" font-weight="bold" lengthAdjust="spacing" textLength="83.8701" x="10" y="20.9951">regression</text></g><!--class DataLoader--><g id="elem_DataLoader"><rect codeLine="6" fill="#F1F1F1" height="91.1875" id="DataLoader" rx="2.5" ry="2.5" style="stroke:#181818;stroke-width:0.5;" width="311.8037" x="391" y="349.5"/><text fill="#000000" font-family="sans-serif" font-size="14" lengthAdjust="spacing" textLength="81.6279" x="506.0879" y="367.4951">DataLoader</text><line style="stroke:#181818;stroke-width:0.5;" x1="392" x2="701.8037" y1="375.7969" y2="375.7969"/><text fill="#000000" font-family="sans-serif" font-size="14" lengthAdjust="spacing" textLength="100.2764" x="397" y="392.792">-separator: str</text><line style="stroke:#181818;stroke-width:0.5;" x1="392" x2="701.8037" y1="400.0938" y2="400.0938"/><text fill="#000000" font-family="sans-serif" font-size="14" lengthAdjust="spacing" textLength="168.0205" x="397" y="417.0889">+__init__(separator: str)</text><text fill="#000000" font-family="sans-serif" font-size="14" lengthAdjust="spacing" textLength="299.8037" x="397" y="433.3857">+load_data(folder_path: str) : list[DataSet]</text></g><!--class DataSet--><g id="elem_DataSet"><rect codeLine="12" fill="#F1F1F1" height="172.6719" id="DataSet" rx="2.5" ry="2.5" style="stroke:#181818;stroke-width:0.5;" width="430.8379" x="767" y="458.5"/><text fill="#000000" font-family="sans-serif" font-size="14" lengthAdjust="spacing" textLength="56.417" x="954.2104" y="476.4951">DataSet</text><line style="stroke:#181818;stroke-width:0.5;" x1="768" x2="1196.8379" y1="484.7969" y2="484.7969"/><text fill="#000000" font-family="sans-serif" font-size="14" lengthAdjust="spacing" textLength="99.0527" x="773" y="501.792">-data: float[][]</text><text fill="#000000" font-family="sans-serif" font-size="14" lengthAdjust="spacing" textLength="102.5254" x="773" y="518.0889">+provider : str</text><line style="stroke:#181818;stroke-width:0.5;" x1="768" x2="1196.8379" y1="525.3906" y2="525.3906"/><text fill="#000000" font-family="sans-serif" font-size="14" lengthAdjust="spacing" textLength="152.4619" x="773" y="542.3857">-__init__(provider: str)</text><text fill="#000000" font-family="sans-serif" font-size="14" lengthAdjust="spacing" textLength="67.7236" x="773" y="558.6826">-__iter__()</text><text fill="#000000" font-family="sans-serif" font-size="14" lengthAdjust="spacing" textLength="97.2207" x="773" y="574.9795">-__len__() : int</text><text fill="#000000" font-family="sans-serif" font-size="14" lengthAdjust="spacing" textLength="94.6709" x="773" y="591.2764">-__str__() : str</text><text fill="#000000" font-family="sans-serif" font-size="14" lengthAdjust="spacing" textLength="155.9619" x="773" y="607.5732">+add_entry(list[float])</text><text fill="#000000" font-family="sans-serif" font-size="14" lengthAdjust="spacing" textLength="418.8379" x="773" y="623.8701">+get_features_and_labels() : tuple[list[list[float]], list[float]]</text></g><!--class <<private>>\nUtil--><g id="elem_&lt;&lt;private&gt;&gt;\nUtil"><rect codeLine="23" fill="#F1F1F1" height="74.8906" id="&lt;&lt;private&gt;&gt;\nUtil" rx="2.5" ry="2.5" style="stroke:#181818;stroke-width:0.5;" width="377.6611" x="793.5" y="348.5"/><text fill="#000000" font-family="sans-serif" font-size="14" lengthAdjust="spacing" textLength="66.6299" x="949.0156" y="366.4951">«private»</text><text fill="#000000" font-family="sans-serif" font-size="14" lengthAdjust="spacing" textLength="23.5156" x="970.5728" y="382.792">Util</text><line style="stroke:#181818;stroke-width:0.5;" x1="794.5" x2="1170.1611" y1="391.0938" y2="391.0938"/><line style="stroke:#181818;stroke-width:0.5;" x1="794.5" x2="1170.1611" y1="399.0938" y2="399.0938"/><text fill="#000000" font-family="sans-serif" font-size="14" lengthAdjust="spacing" text-decoration="underline" textLength="365.6611" x="799.5" y="416.0889">+parse_line(line: str, separator: str = " ") : list[float]</text></g><!--class Regressor--><g id="elem_Regressor"><rect codeLine="32" fill="#F1F1F1" height="88.8594" id="Regressor" rx="2.5" ry="2.5" style="stroke:#181818;stroke-width:0.5;" width="319.8564" x="387" y="142.5"/><text fill="#000000" font-family="sans-serif" font-size="12" font-style="italic" lengthAdjust="spacing" textLength="68.332" x="512.7622" y="158.6387">«interface»</text><text fill="#000000" font-family="sans-serif" font-size="14" font-style="italic" lengthAdjust="spacing" textLength="70.5059" x="511.6753" y="174.4639">Regressor</text><line style="stroke:#181818;stroke-width:0.5;" x1="388" x2="705.8564" y1="182.7656" y2="182.7656"/><line style="stroke:#181818;stroke-width:0.5;" x1="388" x2="705.8564" y1="190.7656" y2="190.7656"/><text fill="#000000" font-family="sans-serif" font-size="14" lengthAdjust="spacing" textLength="307.8564" x="393" y="207.7607">+train(X: list[list[float]], y: list[float]) : None</text><text fill="#000000" font-family="sans-serif" font-size="14" lengthAdjust="spacing" textLength="197.333" x="393" y="224.0576">+predict(x: list[float]) : float</text></g><!--class LinearRegressor--><g id="elem_LinearRegressor"><rect codeLine="37" fill="#F1F1F1" height="107.4844" id="LinearRegressor" rx="2.5" ry="2.5" style="stroke:#181818;stroke-width:0.5;" width="319.8564" x="822.5" y="167.5"/><text fill="#000000" font-family="sans-serif" font-size="14" lengthAdjust="spacing" textLength="114.0166" x="925.4199" y="185.4951">LinearRegressor</text><line style="stroke:#181818;stroke-width:0.5;" x1="823.5" x2="1141.3564" y1="193.7969" y2="193.7969"/><text fill="#000000" font-family="sans-serif" font-size="14" lengthAdjust="spacing" textLength="90.248" x="828.5" y="210.792">-coefficients:</text><line style="stroke:#181818;stroke-width:0.5;" x1="823.5" x2="1141.3564" y1="218.0938" y2="218.0938"/><text fill="#000000" font-family="sans-serif" font-size="14" lengthAdjust="spacing" textLength="66.1172" x="828.5" y="235.0889">-__init__()</text><text fill="#000000" font-family="sans-serif" font-size="14" lengthAdjust="spacing" textLength="307.8564" x="828.5" y="251.3857">+train(X: list[list[float]], y: list[float]) : None</text><text fill="#000000" font-family="sans-serif" font-size="14" lengthAdjust="spacing" textLength="197.333" x="828.5" y="267.6826">+predict(x: list[float]) : float</text></g><!--class AverageRegressor--><g id="elem_AverageRegressor"><rect codeLine="44" fill="#F1F1F1" height="91.1875" id="AverageRegressor" rx="2.5" ry="2.5" style="stroke:#181818;stroke-width:0.5;" width="319.8564" x="822.5" y="41.5"/><text fill="#000000" font-family="sans-serif" font-size="14" lengthAdjust="spacing" textLength="128.8164" x="918.02" y="59.4951">AverageRegressor</text><line style="stroke:#181818;stroke-width:0.5;" x1="823.5" x2="1141.3564" y1="67.7969" y2="67.7969"/><line style="stroke:#181818;stroke-width:0.5;" x1="823.5" x2="1141.3564" y1="75.7969" y2="75.7969"/><text fill="#000000" font-family="sans-serif" font-size="14" lengthAdjust="spacing" textLength="66.1172" x="828.5" y="92.792">-__init__()</text><text fill="#000000" font-family="sans-serif" font-size="14" lengthAdjust="spacing" textLength="307.8564" x="828.5" y="109.0889">+train(X: list[list[float]], y: list[float]) : None</text><text fill="#000000" font-family="sans-serif" font-size="14" lengthAdjust="spacing" textLength="197.333" x="828.5" y="125.3857">+predict(x: list[float]) : float</text></g><!--class Predictor--><g id="elem_Predictor"><rect codeLine="50" fill="#F1F1F1" height="172.6719" id="Predictor" rx="2.5" ry="2.5" style="stroke:#181818;stroke-width:0.5;" width="304.5781" x="22" y="100.5"/><text fill="#000000" font-family="sans-serif" font-size="14" lengthAdjust="spacing" textLength="63.0957" x="142.7412" y="118.4951">Predictor</text><line style="stroke:#181818;stroke-width:0.5;" x1="23" x2="325.5781" y1="126.7969" y2="126.7969"/><text fill="#000000" font-family="sans-serif" font-size="14" lengthAdjust="spacing" text-decoration="underline" textLength="211.3945" x="28" y="143.792">+AVERAGE : str = "AVERAGE"</text><text fill="#000000" font-family="sans-serif" font-size="14" lengthAdjust="spacing" text-decoration="underline" textLength="178.5" x="28" y="160.0889">+LINEAR : str = "LINEAR"</text><text fill="#000000" font-family="sans-serif" font-size="14" lengthAdjust="spacing" textLength="142.0166" x="28" y="176.3857">-regressor_type : str</text><text fill="#000000" font-family="sans-serif" font-size="14" lengthAdjust="spacing" textLength="194.4893" x="28" y="192.6826">-regressors : list[Regressor]</text><text fill="#000000" font-family="sans-serif" font-size="14" lengthAdjust="spacing" textLength="229.7354" x="28" y="208.9795">+/providers : list[str] {readonly}</text><line style="stroke:#181818;stroke-width:0.5;" x1="23" x2="325.5781" y1="216.2813" y2="216.2813"/><text fill="#000000" font-family="sans-serif" font-size="14" lengthAdjust="spacing" textLength="198.6318" x="28" y="233.2764">-__init__(regressor_type: str)</text><text fill="#000000" font-family="sans-serif" font-size="14" lengthAdjust="spacing" textLength="162.415" x="28" y="249.5732">+train(folder_path: str)</text><text fill="#000000" font-family="sans-serif" font-size="14" lengthAdjust="spacing" textLength="292.5781" x="28" y="265.8701">+predict(provider: str, x: list[float]) : float</text></g><!--link DataLoader to DataSet--><g id="link_DataLoader_DataSet"><path codeLine="27" d="M679.54,440.51 C707.19,450.08 731.3804,458.4466 761.1804,468.7666 " fill="none" id="DataLoader-to-DataSet" style="stroke:#181818;stroke-width:1;stroke-dasharray:7.0,7.0;"/><polygon fill="#181818" points="766.85,470.73,759.6545,464.0051,762.1253,469.0938,757.0366,471.5646,766.85,470.73" style="stroke:#181818;stroke-width:1;"/></g><!--link DataLoader to <<private>>\nUtil--><g id="link_DataLoader_&lt;&lt;private&gt;&gt;\nUtil"><path codeLine="28" d="M703.28,391.78 C732.43,391.17 757.2013,390.6538 787.2313,390.0338 " fill="none" id="DataLoader-to-&lt;&lt;private&gt;&gt;\nUtil" style="stroke:#181818;stroke-width:1;stroke-dasharray:7.0,7.0;"/><polygon fill="#181818" points="793.23,389.91,784.1494,386.0966,788.2311,390.0132,784.3145,394.0949,793.23,389.91" style="stroke:#181818;stroke-width:1;"/></g><!--reverse link Regressor to LinearRegressor--><g id="link_Regressor_LinearRegressor"><path codeLine="61" d="M725.2147,200.8998 C762.7647,203.8498 784.86,205.58 822.41,208.52 " fill="none" id="Regressor-backto-LinearRegressor" style="stroke:#181818;stroke-width:1;stroke-dasharray:7.0,7.0;"/><polygon fill="none" points="707.27,199.49,724.7448,206.8813,725.6846,194.9182,707.27,199.49" style="stroke:#181818;stroke-width:1;"/></g><!--reverse link Regressor to AverageRegressor--><g id="link_Regressor_AverageRegressor"><path codeLine="62" d="M724.8096,146.2149 C762.3596,137.5549 784.86,132.36 822.41,123.7 " fill="none" id="Regressor-backto-AverageRegressor" style="stroke:#181818;stroke-width:1;stroke-dasharray:7.0,7.0;"/><polygon fill="none" points="707.27,150.26,726.158,152.0614,723.4612,140.3684,707.27,150.26" style="stroke:#181818;stroke-width:1;"/></g><!--link Predictor to Regressor--><g id="link_Predictor_Regressor"><path codeLine="63" d="M327.27,187 C346.95,187 361.16,187 380.95,187 " fill="none" id="Predictor-to-Regressor" style="stroke:#181818;stroke-width:1;"/><polygon fill="#181818" points="386.95,187,377.95,183,381.95,187,377.95,191,386.95,187" style="stroke:#181818;stroke-width:1;"/><text fill="#000000" font-family="sans-serif" font-size="13" lengthAdjust="spacing" textLength="6.5" x="364.4452" y="199.4129">*</text></g><!--link Predictor to DataLoader--><g id="link_Predictor_DataLoader"><path codeLine="66" d="M327.27,272.2 C374.33,298.62 419.138,323.7829 459.468,346.4229 " fill="none" id="Predictor-to-DataLoader" style="stroke:#181818;stroke-width:1;stroke-dasharray:7.0,7.0;"/><polygon fill="#181818" points="464.7,349.36,458.8101,341.4664,460.34,346.9124,454.894,348.4424,464.7,349.36" style="stroke:#181818;stroke-width:1;"/></g><!--link Predictor to DataSet--><g id="link_Predictor_DataSet"><path codeLine="67" d="M213.4,273.7 C245.17,335.54 296.69,415.07 367,458 C486.09,530.71 635.9422,551.9563 760.8922,555.3663 " fill="none" id="Predictor-to-DataSet" style="stroke:#181818;stroke-width:1;stroke-dasharray:7.0,7.0;"/><polygon fill="#181818" points="766.89,555.53,758.0025,551.286,761.8919,555.3936,757.7842,559.283,766.89,555.53" style="stroke:#181818;stroke-width:1;"/></g><!--SRC=[pLJ1Yjim4BtxAmQVlDqaxJcaWK13MGXBoT9II8tGskD4h2ePQHAQRlFlbUtObc8VzjRwOEoPDpDFRqPp43b29amcCR8lGfNSy9-GIMxjYiY8voFXGwRLa_YDy26IM12G1YFs1u9S6Cn8Q1L59SzU-1uXpZdn65uZS4-T1ZuvoqRp7CtLN3rJi5ZL8ctcOCbqZdjWJ2X1Z2KXuiw3I9UELPMIGakNc9MS3WqAvY25fLrLzGafhQCkqGqVvmd8LBdcKBYyj4jtgLUgDFeaAkuXpMbFiqNSiAmHvBYn93HAL9ND9HIA0e-Bltf2HNYUCrHapabzj9fcwkknHs85SZeQj8ohd4d-ZDBMgUXOIjpLWLvqEW7_RwXIl5YKHfmuuNBvGtqb8MDFiNjujSH9P1TmFRB8f52OLA-Q- -Ick_0HOeYxtZH5_PhUZCncoxP5OwuHNj75cp-3UoU2TKFPydKgeobuXh1jVDh0Oj5PbylWN6IuKCdtAzDGiNF0lphEerOO30lc8gFarm1OVmrLtZZ5kEbv-JEPQImAaGdNUJk7iScx-sUyLoSqJkvnuly1lozDG43CczdLj_LszNaDtN1U3V4OUFFmk5vjUspp7ti7DgqCZCub3ZP5vxRj1UXqypVD-tQHT32N9eLNWppNIfulOnA7fGUBib5zi2H7f0sss0JUeBHtc_xCPhUZF0QvdPeQqxTgEdNN6-0Tk7UFSTLwIBiSceKmud1Ruoy0]--></g></svg>